<svg width="97" height="97" viewBox="0 0 97 97" fill="none" xmlns="http://www.w3.org/2000/svg">
<path d="M20.2083 12.125C15.7562 12.125 12.125 15.7562 12.125 20.2083V76.7917C12.125 81.2438 15.7562 84.875 20.2083 84.875H76.7917C81.2438 84.875 84.875 81.2438 84.875 76.7917V20.2083C84.875 15.7562 81.2438 12.125 76.7917 12.125H20.2083ZM25.8919 31.0703H36.375C45.674 31.0703 47.237 36.7855 47.237 40.4167C47.237 45.674 43.6216 47.3317 42.8164 47.7422C43.6216 48.1527 47.7422 49.2578 47.7422 55.3203C48.1527 62.5985 43.6058 65.4245 37.1328 65.4245H25.8919V31.0703ZM54.1836 31.0703H69.0872V35.112H54.1836V31.0703ZM32.7122 36.7539V45.2161H36.375C38.8063 45.2161 40.4167 44.411 40.4167 41.1745C40.4167 38.3485 39.201 36.7539 36.375 36.7539H32.7122ZM63.0247 39.6589C68.6768 39.6589 72.75 42.8638 72.75 52.1628V54.9414H58.9831C58.9831 56.1571 59.062 60.625 63.9089 60.625C67.1453 60.625 68.661 59.0304 69.4661 58.2253L72.3711 62.2669C71.9606 62.6774 69.1662 65.9297 63.9089 65.9297C57.8464 65.9297 52.9206 62.6774 52.9206 54.1836V52.1628C52.9206 42.8638 57.7674 39.6589 63.0247 39.6589ZM62.2669 44.8372C61.0513 44.8372 58.6042 45.2951 58.6042 50.1419H65.4245C65.4245 50.1419 66.3086 44.8372 62.2669 44.8372ZM32.7122 50.5208V59.8672H37.1328C39.5641 59.8672 40.7956 58.1463 40.7956 55.3203C41.2061 52.0838 40.0693 50.5208 37.638 50.5208H32.7122Z" fill="#6667AB"/>
</svg>
