<svg width="98" height="97" viewBox="0 0 98 97" fill="none" xmlns="http://www.w3.org/2000/svg">
<path d="M48.9998 8.08331C26.4458 8.08331 8.1665 26.1761 8.1665 48.5C8.1665 70.8239 26.4458 88.9167 48.9998 88.9167C71.5539 88.9167 89.8332 70.8239 89.8332 48.5C89.8332 26.1761 71.5539 8.08331 48.9998 8.08331ZM48.9998 16.1666C67.008 16.1666 81.6665 30.6756 81.6665 48.5C81.6665 50.3945 81.4751 52.2575 81.1561 54.0573C80.1512 53.8362 78.6678 53.5679 76.9452 53.5521C75.6691 53.5363 74.0741 53.7415 72.7342 53.931C73.1968 52.5259 73.4998 50.9787 73.4998 49.3841C73.4998 45.5003 71.5858 41.8849 68.5233 38.901C69.3687 35.7908 70.1981 30.4546 68.0129 28.2916C61.5529 28.2916 57.98 32.8543 57.8045 33.0911C55.8107 32.6175 53.7531 32.3333 51.5519 32.3333C48.7287 32.3333 46.033 32.8385 43.5129 33.5963L44.2785 32.9648C44.2785 32.9648 40.6896 28.039 34.0702 28.039C31.7573 30.3441 32.8101 36.1855 33.6873 39.1536C30.561 42.1059 28.5832 45.595 28.5832 49.3841C28.5832 50.7103 28.9022 51.9733 29.2212 53.1732C28.0887 53.0469 24.0054 52.668 22.3306 52.668C20.8472 52.668 18.5503 53.0153 16.716 53.4258C16.4608 51.8154 16.3332 50.1735 16.3332 48.5C16.3332 30.6756 30.9917 16.1666 48.9998 16.1666ZM22.3306 53.6784C23.9416 53.6784 28.8384 54.2467 29.4764 54.3099C29.5562 54.5309 29.6359 54.7362 29.7316 54.9414C27.9771 54.7835 24.5796 54.5467 22.3306 54.8151C20.8312 54.9888 18.9172 55.5255 17.2264 55.9518C17.0988 55.4466 16.9393 54.9572 16.8436 54.4362C18.63 54.0573 20.9748 53.6784 22.3306 53.6784ZM76.9452 54.5625C78.5721 54.5783 80.0555 54.8467 81.0285 55.0677C80.9806 55.3361 80.8371 55.5571 80.7733 55.8255C79.7365 55.5887 78.0298 55.2414 76.0519 55.194C75.0949 55.1782 73.5636 55.2256 72.2238 55.3203C72.2876 55.194 72.3036 55.0677 72.3514 54.9414C73.7391 54.7519 75.5096 54.5467 76.9452 54.5625ZM24.8827 55.6992C27.1795 55.715 29.3328 55.8729 30.242 55.9518C32.3794 59.8987 36.702 62.8195 43.3853 64.0351C41.7423 64.935 40.2749 66.1981 39.1743 67.6979C38.2173 67.7768 37.2124 67.8242 36.2394 67.8242C33.4002 67.8242 31.6297 65.3139 30.1144 63.151C28.5832 60.9881 26.701 60.7513 25.6483 60.625C24.5796 60.4987 24.2127 61.0986 24.755 61.5091C27.8654 63.8773 28.9819 66.6875 30.242 69.2135C31.3745 71.487 33.7511 72.75 36.367 72.75H36.8774C36.7977 73.192 36.7498 73.6025 36.7498 74.013V78.4336C27.3231 74.6603 20.1453 66.6875 17.4816 56.8359C19.1564 56.4254 21.0386 55.9992 22.4582 55.8255C23.1121 55.7466 23.9416 55.6834 24.8827 55.6992ZM76.0519 56.2044C77.8862 56.2518 79.5132 56.5991 80.5181 56.8359C78.269 65.2034 72.7183 72.1658 65.3332 76.4127V74.013C65.3332 70.5713 62.5897 66.1507 58.6978 64.0351C65.1577 62.8668 69.3687 60.0724 71.5858 56.3307C73.133 56.2202 74.9513 56.1728 76.0519 56.2044ZM51.0415 72.75C52.158 72.75 53.0832 73.6657 53.0832 74.7708V80.5807C51.7433 80.7544 50.3875 80.8333 48.9998 80.8333V74.7708C48.9998 73.6657 49.925 72.75 51.0415 72.75ZM42.8748 76.7916C43.9914 76.7916 44.9165 77.7073 44.9165 78.8125V80.5807C43.5448 80.407 42.1571 80.1544 40.8332 79.8229V78.8125C40.8332 77.7073 41.7583 76.7916 42.8748 76.7916ZM59.2082 76.7916C60.1971 76.7916 61.0584 77.5021 61.2498 78.4336C59.9259 78.9704 58.5701 79.4598 57.1665 79.8229V78.8125C57.1665 77.7073 58.0916 76.7916 59.2082 76.7916Z" fill="#6667AB"/>
</svg>
