<svg width="97" height="97" viewBox="0 0 97 97" fill="none" xmlns="http://www.w3.org/2000/svg">
<path d="M32.3333 12.125C21.1743 12.125 12.125 21.1743 12.125 32.3333V64.6667C12.125 75.8257 21.1743 84.875 32.3333 84.875H64.6667C75.8257 84.875 84.875 75.8257 84.875 64.6667V32.3333C84.875 21.1743 75.8257 12.125 64.6667 12.125H32.3333ZM72.75 20.2083C74.981 20.2083 76.7917 22.019 76.7917 24.25C76.7917 26.481 74.981 28.2917 72.75 28.2917C70.519 28.2917 68.7083 26.481 68.7083 24.25C68.7083 22.019 70.519 20.2083 72.75 20.2083ZM48.5 28.2917C59.659 28.2917 68.7083 37.341 68.7083 48.5C68.7083 59.659 59.659 68.7083 48.5 68.7083C37.341 68.7083 28.2917 59.659 28.2917 48.5C28.2917 37.341 37.341 28.2917 48.5 28.2917ZM48.5 36.375C45.2842 36.375 42.2002 37.6524 39.9263 39.9263C37.6524 42.2002 36.375 45.2842 36.375 48.5C36.375 51.7157 37.6524 54.7998 39.9263 57.0737C42.2002 59.3475 45.2842 60.625 48.5 60.625C51.7157 60.625 54.7998 59.3475 57.0737 57.0737C59.3475 54.7998 60.625 51.7157 60.625 48.5C60.625 45.2842 59.3475 42.2002 57.0737 39.9263C54.7998 37.6524 51.7157 36.375 48.5 36.375Z" fill="#6667AB"/>
</svg>
