<svg width="98" height="94" viewBox="0 0 98 94" fill="none" xmlns="http://www.w3.org/2000/svg">
<path d="M77.5833 11.75H20.4167C15.9046 11.75 12.25 15.2554 12.25 19.5833V74.4167C12.25 78.7446 15.9046 82.25 20.4167 82.25H77.5833C82.0954 82.25 85.75 78.7446 85.75 74.4167V19.5833C85.75 15.2554 82.0954 11.75 77.5833 11.75ZM36.75 66.5833H26.4478V39.1667H36.75V66.5833ZM31.4172 34.1416C28.2689 34.1416 26.166 32.1284 26.166 29.4416C26.166 26.7548 28.2648 24.7416 31.7642 24.7416C34.9125 24.7416 37.0154 26.7548 37.0154 29.4416C37.0154 32.1284 34.9166 34.1416 31.4172 34.1416ZM73.5 66.5833H63.5285V51.5982C63.5285 47.4543 60.8703 46.4987 59.8739 46.4987C58.8776 46.4987 55.5537 47.1371 55.5537 51.5982C55.5537 52.2366 55.5537 66.5833 55.5537 66.5833H45.2515V39.1667H55.5537V42.9933C56.8808 40.7608 59.5391 39.1667 64.5248 39.1667C69.5106 39.1667 73.5 42.9932 73.5 51.5982V66.5833Z" fill="#6667AB"/>
</svg>
